HIERARCHY
ROOT Hips
{
 OFFSET 0.000000 0.000000 0.000000
 CHANNELS 6 Xposition Yposition Zposition Yrotation Xrotation Zrotation
 JOINT Chest
 {
  OFFSET 0.000000 9.724570 -1.080508
  CHANNELS 3 Yrotation Xrotation Zrotation
  JOINT Chest2
  {
   OFFSET 0.000000 10.781023 0.000000
   CHANNELS 3 Yrotation Xrotation Zrotation
   JOINT Chest3
   {
    OFFSET 0.000000 9.842877 -0.000488
    CHANNELS 3 Yrotation Xrotation Zrotation
    JOINT Chest4
    {
     OFFSET 0.000000 9.831886 -0.000488
     CHANNELS 3 Yrotation Xrotation Zrotation
     JOINT Neck
     {
      OFFSET 0.000000 13.778020 0.000000
      CHANNELS 3 Yrotation Xrotation Zrotation
      JOINT Head
      {
       OFFSET 0.000000 9.153561 0.001049
       CHANNELS 3 Yrotation Xrotation Zrotation
       End Site
       {
        OFFSET 0.000000 17.013053 0.000141
       }
      }
     }
     JOINT RightCollar
     {
      OFFSET -2.998440 7.723576 0.000000
      CHANNELS 3 Yrotation Xrotation Zrotation
      JOINT RightShoulder
      {
       OFFSET -14.001811 0.000000 0.000000
       CHANNELS 3 Yrotation Xrotation Zrotation
       JOINT RightElbow
       {
        OFFSET -30.003712 0.000000 0.000000
        CHANNELS 3 Yrotation Xrotation Zrotation
        JOINT RightWrist
        {
         OFFSET -24.523460 0.000000 0.000000
         CHANNELS 3 Yrotation Xrotation Zrotation
         End Site
         {
          OFFSET -18.302352 0.000000 0.000000
         }
        }
       }
      }
     }
     JOINT LeftCollar
     {
      OFFSET 2.998440 7.723576 0.000000
      CHANNELS 3 Yrotation Xrotation Zrotation
      JOINT LeftShoulder
      {
       OFFSET 14.001811 0.000000 0.000000
       CHANNELS 3 Yrotation Xrotation Zrotation
       JOINT LeftElbow
       {
        OFFSET 30.003712 0.000000 0.000000
        CHANNELS 3 Yrotation Xrotation Zrotation
        JOINT LeftWrist
        {
         OFFSET 24.523460 0.000000 0.000000
         CHANNELS 3 Yrotation Xrotation Zrotation
         End Site
         {
          OFFSET 18.302352 0.000000 0.000000
         }
        }
       }
      }
     }
    }
   }
  }
 }
 JOINT RightHip
 {
  OFFSET -7.997399 0.002291 -0.000255
  CHANNELS 3 Yrotation Xrotation Zrotation
  JOINT RightKnee
  {
   OFFSET 0.000000 -41.619678 -0.000115
   CHANNELS 3 Yrotation Xrotation Zrotation
   JOINT RightAnkle
   {
    OFFSET 0.000000 -40.601393 -0.000194
    CHANNELS 3 Yrotation Xrotation Zrotation
    JOINT RightToe
    {
     OFFSET 0.000000 -6.581369 14.895014
     CHANNELS 3 Yrotation Xrotation Zrotation
     End Site
     {
      OFFSET 0.000000 -1.508064 6.450961
     }
    }
   }
  }
 }
 JOINT LeftHip
 {
  OFFSET 7.997399 0.000098 -0.000011
  CHANNELS 3 Yrotation Xrotation Zrotation
  JOINT LeftKnee
  {
   OFFSET 0.000000 -41.619678 -0.000115
   CHANNELS 3 Yrotation Xrotation Zrotation
   JOINT LeftAnkle
   {
    OFFSET 0.000000 -40.601393 -0.000194
    CHANNELS 3 Yrotation Xrotation Zrotation
    JOINT LeftToe
    {
     OFFSET 0.000000 -6.581369 14.895014
     CHANNELS 3 Yrotation Xrotation Zrotation
     End Site
     {
      OFFSET 0.000000 -1.508064 6.450961
     }
    }
   }
  }
 }
}
MOTION
Frames: 7
Frame Time: 0.016667
371.410167 90.787673 109.564130 -10.529593 0.906970 1.356702 3.676462 3.005540 -1.544569 1.715707 -4.502360 -0.712048 1.710922 1.315472 -0.537861 1.242654 6.821644 -0.409793 -1.105264 9.625370 2.227108 -3.195508 -18.066452 4.855765 -5.246994 3.459307 -1.608801 106.246942 -32.983267 -14.413937 -12.736383 -5.880766 -7.589243 13.579677 33.604287 22.044516 -10.670045 9.641461 10.484310 -107.331556 -32.022693 25.905775 4.986593 -14.976927 -10.067408 -0.430256 6.488924 5.019987 -1.798295 2.607984 -2.440773 0.099808 1.492515 -0.062743 4.241266 -2.716692 1.335125 0.011464 -2.406733 -0.545730 4.219463 4.935782 1.259633 -1.292331 -0.713249 -0.552145 2.715177 0.252023 -2.550532 -0.014165 -5.236878 0.309742
371.407364 90.779473 109.676838 -10.404983 1.047336 1.323598 3.478779 2.834988 -1.534010 1.626578 -4.577429 -0.704897 1.621828 1.240668 -0.539761 1.175678 6.765613 -0.410800 -0.984579 9.768873 2.231789 -2.954331 -17.806399 4.800506 -5.025753 3.591660 -1.686774 106.082208 -32.933950 -14.124119 -12.436602 -6.457138 -7.426629 13.418469 32.689045 20.542491 -10.483749 9.932576 10.317474 -107.132904 -32.347331 25.551778 4.735235 -15.023881 -10.042665 0.264198 6.840723 4.552451 -1.866107 2.558904 -2.425235 0.098234 1.483089 -0.038804 4.190070 -2.769796 1.337768 0.011702 -2.434984 -0.550606 3.900685 4.806573 1.241879 -1.252393 -0.604002 -0.525127 2.885283 0.125909 -2.525533 -0.012733 -5.232166 0.278673
371.400973 90.769245 109.807591 -10.323003 1.091812 1.292090 3.301596 2.696847 -1.517631 1.546404 -4.638133 -0.695621 1.541725 1.180187 -0.538623 1.115675 6.720324 -0.409595 -0.860647 9.962589 2.235608 -2.704252 -17.453155 4.740159 -4.789867 3.708999 -1.748349 105.852205 -32.916451 -13.802810 -12.103279 -6.854384 -7.239346 13.379409 31.940861 19.224100 -10.291393 10.140054 10.146589 -106.824584 -32.671720 25.088223 4.413202 -15.055340 -10.032546 0.647444 7.135193 4.333950 -1.860587 2.611063 -2.410416 0.071342 1.484524 -0.019402 4.128733 -2.831977 1.338863 0.011912 -2.468126 -0.552970 3.659088 4.796308 1.234499 -1.215281 -0.507876 -0.499303 3.020890 -0.002386 -2.504239 -0.011406 -5.234621 0.249508
371.393263 90.758516 109.954083 -10.318431 1.005892 1.266276 3.169310 2.621027 -1.491640 1.485953 -4.671237 -0.682798 1.481371 1.147243 -0.531939 1.070907 6.695689 -0.404336 -0.739540 10.213271 2.233878 -2.454951 -16.994031 4.668497 -4.533781 3.804446 -1.776690 105.571018 -32.998124 -13.446645 -11.730044 -6.934135 -7.025817 13.444749 31.475051 18.104782 -10.087163 10.181966 9.971130 -106.393519 -33.062857 24.398199 3.967737 -15.105792 -10.046358 0.364866 7.230367 4.718444 -1.718351 2.794974 -2.399157 -0.010785 1.496212 -0.008024 4.054610 -2.890128 1.338206 0.012060 -2.513057 -0.549846 3.589041 4.959106 1.243329 -1.190804 -0.464093 -0.484988 3.070035 -0.102414 -2.482102 -0.010316 -5.255507 0.224783
371.381966 90.745759 110.118620 -10.356334 0.823994 1.241876 3.057412 2.577658 -1.460805 1.434448 -4.689965 -0.668163 1.429979 1.128650 -0.522532 1.033067 6.681816 -0.397087 -0.615421 10.514197 2.230997 -2.197842 -16.441591 4.592149 -4.263093 3.885172 -1.788043 105.222031 -33.110182 -13.057173 -11.322824 -6.835055 -6.784762 13.595015 31.183997 17.148020 -9.875179 10.140540 9.792863 -105.844957 -33.447311 23.592463 3.452135 -15.139943 -10.075320 -0.234562 7.278040 5.339636 -1.502591 3.079986 -2.387144 -0.118234 1.518802 -0.000971 3.970332 -2.957350 1.336111 0.012173 -2.562880 -0.544201 3.596328 5.240772 1.261169 -1.169221 -0.433491 -0.471597 3.084687 -0.204634 -2.463324 -0.009318 -5.283565 0.201958
371.365890 90.730272 110.291195 -10.390730 0.609730 1.220321 2.963816 2.542583 -1.432803 1.391265 -4.705093 -0.654956 1.386893 1.113630 -0.513710 1.001415 6.670612 -0.390307 -0.507859 10.805463 2.235273 -1.977663 -15.905786 4.538986 -4.023932 3.965074 -1.768155 104.742314 -33.138245 -12.630996 -10.934978 -6.665536 -6.517742 13.849810 31.115674 16.646577 -9.701353 10.168856 9.623014 -105.185259 -33.706713 22.843579 2.926002 -15.010308 -10.155456 -0.795971 7.346018 5.791429 -1.338744 3.397271 -2.375690 -0.194233 1.552106 0.000870 3.904630 -3.044774 1.335147 0.012274 -2.605432 -0.539723 3.580209 5.552830 1.275835 -1.138460 -0.383582 -0.451534 3.108769 -0.335880 -2.454778 -0.008439 -5.299234 0.182351
371.342861 90.710558 110.471072 -10.403715 0.374305 1.202813 2.899030 2.511851 -1.410648 1.361215 -4.718423 -0.644550 1.356906 1.100372 -0.506354 0.979476 6.660714 -0.384663 -0.429190 11.074153 2.251847 -1.820661 -15.409954 4.524515 -3.845752 4.066381 -1.708108 104.135726 -33.032570 -12.184733 -10.591471 -6.411171 -6.218323 14.255630 31.366842 16.876439 -9.597403 10.359941 9.478688 -104.430251 -33.772673 22.239889 2.351777 -14.679539 -10.317558 -1.191430 7.385016 5.904855 -1.286434 3.733283 -2.367236 -0.208654 1.601252 -0.004323 3.872377 -3.163424 1.336484 0.012381 -2.634581 -0.538419 3.497511 5.874011 1.281783 -1.091998 -0.295075 -0.420153 3.160835 -0.515776 -2.462489 -0.007741 -5.291697 0.167509
